<svg xmlns="http://www.w3.org/2000/svg" width="335.29" height="314.11" viewBox="0 0 335.29 314.11">
  <title>monogram-ms-3</title>
  <g>
    <g>
      <g>
        <path d="M190.55,144.87a1.24,1.24,0,0,1,.41,1v22.61a1,1,0,0,1-1.12,1.12h-20v2.28a1.26,1.26,0,1,1-2.52,0v-2.28H147.58c-.73,0-1.42-.38-1.42-1.12v-5.76a1.26,1.26,0,1,1,2.52,0v4.36H167.3v-2a1.26,1.26,0,1,1,2.52,0v2h18.63V146.57l-17.83-13.91,2-1.68Z" fill="#d4a964" fill-rule="evenodd"/>
        <path d="M127.52,95.73l16.13,12.47v3.46L128,99.5v28.37h1.89a1.26,1.26,0,1,1,0,2.52H128v31.5a1.52,1.52,0,0,1-3,0v-31.5h-1.89a1.26,1.26,0,1,1,0-2.52H125V96.78a1.52,1.52,0,0,1,.92-1.19A1.65,1.65,0,0,1,127.52,95.73Z" fill="#d4a964" fill-rule="evenodd"/>
        <path d="M215.07,129.12a1.27,1.27,0,0,1-1.33,1.26H211.6v31.5a1.26,1.26,0,1,1-2.52,0v-31.5h-2.14a1.26,1.26,0,1,1,0-2.52h2.14V99.5l-37.16,28.88-1.31,1h0L168.53,131l-.76-.59-21.61-16.83V90.22a1,1,0,0,1,1.12-1.12h20V86.82a1.26,1.26,0,1,1,2.52,0V89.1h19.72c.73,0,1.42.38,1.42,1.12V96a1.26,1.26,0,1,1-2.52,0V91.62H169.82v2a1.26,1.26,0,1,1-2.52,0v-2H148.68V112.2l19.88,15.5,41.08-32a1.19,1.19,0,0,1,2,1v31.08h2.14A1.27,1.27,0,0,1,215.07,129.12Z" fill="#d4a964" fill-rule="evenodd"/>
      </g>
      <g>
        <path d="M91.27,112l1-4.81,1.25.27-2.37,11.07-1.25-.27,1-4.81-12.44-2.67.31-1.45Z" fill="#d4a964"/>
        <path d="M90.83,137.45l-14,.39,0-1.46,6.46-.18L83,127.44l-6.46.18,0-1.48,14-.39,0,1.48-6.24.18.25,8.76,6.24-.17Z" fill="#d4a964"/>
        <path d="M92.5,146.4l.34,1.44L79.2,151l-.34-1.44Z" fill="#d4a964"/>
        <path d="M100.24,167.29l-12.71,5.88L87,172.06l6.54-12.94-10.31,4.77-.62-1.34,12.71-5.87.51,1.11-6.53,13L99.62,166Z" fill="#d4a964"/>
        <path d="M102.57,183.45l-4.06-.34-2.83,2.35-.95-1.14,10.76-9,.95,1.14-6.51,5.41,11.76.91,1.09,1.31-8.75-.61-1.75,9.88-1.12-1.35Z" fill="#d4a964"/>
        <path d="M108.58,198.69a1.08,1.08,0,0,1,.27-.79,1,1,0,0,1,.74-.39,1,1,0,0,1,.77.25,1.06,1.06,0,0,1,.38.73,1,1,0,0,1-.26.79,1.06,1.06,0,0,1-.75.39,1,1,0,0,1-.79-.25A1,1,0,0,1,108.58,198.69Z" fill="#d4a964"/>
        <path d="M125,194.21l5,2.8a8.33,8.33,0,0,1,3,2.7,6.5,6.5,0,0,1,1.08,3.46,7.48,7.48,0,0,1-3.57,6.32,6.49,6.49,0,0,1-3.52.86,8.32,8.32,0,0,1-3.85-1.15l-5-2.8Zm-1.37,13.84a6.78,6.78,0,0,0,3.16.95,5.29,5.29,0,0,0,2.86-.71,6.18,6.18,0,0,0,2.92-5.17,5.3,5.3,0,0,0-.87-2.81,6.79,6.79,0,0,0-2.45-2.22l-3.6-2L120,206Z" fill="#d4a964"/>
        <path d="M150.8,218.34l-.32,1.24-9.58-2.5,3.54-13.54,9.29,2.43-.32,1.24-7.86-2.05L144.28,210l7,1.83L151,213l-7-1.83-1.31,5Z" fill="#d4a964"/>
        <path d="M162.68,220.66a5.48,5.48,0,0,1-2.17-1.38l.61-1.12a5.53,5.53,0,0,0,2,1.29,7.38,7.38,0,0,0,2.58.55,4.75,4.75,0,0,0,2.84-.61,2.12,2.12,0,0,0,1-1.76,1.78,1.78,0,0,0-.47-1.35,3.46,3.46,0,0,0-1.23-.81,20.38,20.38,0,0,0-2-.65,21.56,21.56,0,0,1-2.5-.84,4.11,4.11,0,0,1-1.57-1.18,3,3,0,0,1-.61-2.08,3.5,3.5,0,0,1,.62-1.91,3.83,3.83,0,0,1,1.76-1.34,7,7,0,0,1,2.89-.43,8.52,8.52,0,0,1,2.34.4,6.76,6.76,0,0,1,2,1l-.53,1.17a6.92,6.92,0,0,0-1.85-.93,7,7,0,0,0-2-.35,4.53,4.53,0,0,0-2.79.63,2.2,2.2,0,0,0-1,1.8,1.82,1.82,0,0,0,.47,1.37,3.35,3.35,0,0,0,1.26.82c.51.2,1.19.41,2.05.65a20.84,20.84,0,0,1,2.47.82,4.1,4.1,0,0,1,1.58,1.17,3,3,0,0,1,.6,2,3.45,3.45,0,0,1-.63,1.91,3.85,3.85,0,0,1-1.79,1.33,7.31,7.31,0,0,1-2.91.42A9,9,0,0,1,162.68,220.66Z" fill="#d4a964"/>
        <path d="M178.77,206.5l1.46-.21,2,13.86-1.47.21Z" fill="#d4a964"/>
        <path d="M200.77,207.91l1.34-.47,1.77,5a6.82,6.82,0,0,1-1.75,2,8.64,8.64,0,0,1-2.51,1.37,7.75,7.75,0,0,1-3.87.39,6.79,6.79,0,0,1-3.34-1.53,7.42,7.42,0,0,1-2.42-6.89,6.78,6.78,0,0,1,1.64-3.28,7.78,7.78,0,0,1,3.28-2.13,8.19,8.19,0,0,1,2.94-.5,5.84,5.84,0,0,1,2.63.67l-.55,1.19a5.76,5.76,0,0,0-4.53-.14,6.29,6.29,0,0,0-2.65,1.73,5.53,5.53,0,0,0-1.34,2.68,5.77,5.77,0,0,0,.25,3.06,5.7,5.7,0,0,0,1.72,2.53,5.63,5.63,0,0,0,2.71,1.25,6.16,6.16,0,0,0,3.14-.3,6.09,6.09,0,0,0,3.09-2.23Z" fill="#d4a964"/>
        <path d="M217.72,189.86l8,11.48-1,.7-13.88-4.16,6.5,9.31-1.21.85-8-11.48,1-.7L223,200l-6.5-9.31Z" fill="#d4a964"/>
        <path d="M233.44,193.88a1.08,1.08,0,0,1-.78-.32,1,1,0,0,1-.33-.76,1,1,0,0,1,.3-.75,1,1,0,0,1,.75-.33,1,1,0,0,1,.78.31,1.07,1.07,0,0,1,.33.77,1,1,0,0,1-.3.77A1,1,0,0,1,233.44,193.88Z" fill="#d4a964"/>
        <path d="M241.86,183.2a6.72,6.72,0,0,1-3.59.71,7.49,7.49,0,0,1-6-4.15,6.74,6.74,0,0,1-.6-3.61,7.7,7.7,0,0,1,1.38-3.62,7.81,7.81,0,0,1,2.07-2.07,6,6,0,0,1,2.52-1l.24,1.31a5.58,5.58,0,0,0-3.72,2.46,6.08,6.08,0,0,0-1.09,2.92,5.55,5.55,0,0,0,.5,2.94,6.08,6.08,0,0,0,4.87,3.37,5.55,5.55,0,0,0,2.92-.57,6.08,6.08,0,0,0,2.34-2.05,5.5,5.5,0,0,0,1-4.36l1.31-.24a6,6,0,0,1,0,2.72,7.71,7.71,0,0,1-1.21,2.68A7.63,7.63,0,0,1,241.86,183.2Z" fill="#d4a964"/>
        <path d="M252.9,163.48a6.79,6.79,0,0,1-3.29,1.63,7.44,7.44,0,0,1-6.86-2.45,6.8,6.8,0,0,1-1.52-3.34,8.1,8.1,0,0,1,2.52-7.09,6.81,6.81,0,0,1,3.29-1.62,7.42,7.42,0,0,1,6.88,2.45,6.82,6.82,0,0,1,1.52,3.33,8.1,8.1,0,0,1-2.54,7.08Zm1.2-6.76a5.41,5.41,0,0,0-1.25-2.68,6.19,6.19,0,0,0-5.6-2,5.44,5.44,0,0,0-2.66,1.28,6.4,6.4,0,0,0-2,5.66,5.48,5.48,0,0,0,1.25,2.7,6.12,6.12,0,0,0,5.6,2,5.48,5.48,0,0,0,2.67-1.3,6.4,6.4,0,0,0,2-5.66Z" fill="#d4a964"/>
        <path d="M245.73,140.09l.34-5.69a8.35,8.35,0,0,1,1.13-3.86,6.48,6.48,0,0,1,2.63-2.49,7.47,7.47,0,0,1,7.25.44,6.49,6.49,0,0,1,2.32,2.78,8.3,8.3,0,0,1,.65,4l-.34,5.69Zm13-4.85a6.82,6.82,0,0,0-.54-3.26,5.32,5.32,0,0,0-1.89-2.26,6.19,6.19,0,0,0-5.93-.36,5.3,5.3,0,0,0-2.14,2,6.79,6.79,0,0,0-.92,3.17l-.25,4.13,11.42.69Z" fill="#d4a964"/>
        <path d="M256.19,106.41l1.26-.25,1.91,9.71-13.74,2.71-1.86-9.42,1.26-.25,1.57,8,4.89-1-1.4-7.1,1.24-.24,1.4,7.1,5.1-1Z" fill="#d4a964"/>
      </g>
      <g>
        <path d="M104.13,63.46l10.53,9.22-.94,1.07-8.43-7.38,3.46,10.34-.46.53-10.67-2L106,82.55l-.94,1.07L94.55,74.4l.8-.92,11.81,2.26-3.85-11.37Z" fill="#d4a964"/>
        <path d="M128.59,58.11,122,62.24l.56,4.06-1.3.82-2-15.26,1.24-.77,12.85,8.48-1.32.83Zm-1.09-.73-6.83-4.6,1.13,8.16Z" fill="#d4a964"/>
        <path d="M150.46,53.52l-4.36-3.39a10.24,10.24,0,0,1-1.06.38l-3.6,1.08,1.28,4.25-1.42.43-4-13.41,5-1.51a6.32,6.32,0,0,1,4.39,0,4.36,4.36,0,0,1,2.47,2.93,4.34,4.34,0,0,1-1.8,5.13L152,53.05Zm-3-6a3.61,3.61,0,0,0-1.49-5,4.87,4.87,0,0,0-3.31,0l-3.56,1.07,2,6.72,3.56-1.07A4.83,4.83,0,0,0,147.43,47.52Z" fill="#d4a964"/>
        <path d="M163.56,39l-4.91.22-.06-1.28,11.31-.51.06,1.28-4.91.22.57,12.71-1.48.07Z" fill="#d4a964"/>
        <path d="M181.49,38.49l1.46.22-2.09,13.84-1.46-.22Z" fill="#d4a964"/>
        <path d="M207.67,46.15l-5.16,13-1.13-.45L197.2,44.84,193,55.41l-1.37-.54,5.15-13,1.13.45,4.2,13.88,4.18-10.56Z" fill="#d4a964"/>
        <path d="M220.55,69.64l-.77,1-7.89-6,8.46-11.15,7.65,5.8-.77,1-6.47-4.91-3,4,5.77,4.38-.76,1L217,60.41l-3.14,4.14Z" fill="#d4a964"/>
        <path d="M227.55,78.12a5.49,5.49,0,0,1-.35-2.55l1.25-.26a5.55,5.55,0,0,0,.3,2.35A7.39,7.39,0,0,0,230,80a4.75,4.75,0,0,0,2.3,1.77,2.12,2.12,0,0,0,2-.39,1.79,1.79,0,0,0,.73-1.24,3.45,3.45,0,0,0-.18-1.46,20.65,20.65,0,0,0-.83-2,22,22,0,0,1-1-2.45,4.12,4.12,0,0,1-.12-2,3,3,0,0,1,1.19-1.81A3.5,3.5,0,0,1,236,69.7a3.84,3.84,0,0,1,2.16.47,7,7,0,0,1,2.21,1.92,8.44,8.44,0,0,1,1.21,2,6.74,6.74,0,0,1,.54,2.12l-1.23.35a6.93,6.93,0,0,0-.5-2,7,7,0,0,0-1-1.71,4.52,4.52,0,0,0-2.29-1.72,2.2,2.2,0,0,0-2,.42,1.82,1.82,0,0,0-.73,1.24,3.33,3.33,0,0,0,.19,1.49q.27.77.84,2a20.9,20.9,0,0,1,1,2.41,4.06,4.06,0,0,1,.13,2,3,3,0,0,1-1.17,1.79,3.44,3.44,0,0,1-1.86.76,3.84,3.84,0,0,1-2.17-.5A7.32,7.32,0,0,1,229,80.77,9,9,0,0,1,227.55,78.12Z" fill="#d4a964"/>
      </g>
      <polygon points="89.42 89.95 91.66 90.71 93.55 89.3 93.52 91.66 95.45 93.03 93.19 93.73 92.49 95.99 91.13 94.06 88.76 94.09 90.18 92.19 89.42 89.95" fill="#d4a964"/>
      <polygon points="242.2 89.95 244.44 90.71 246.33 89.3 246.3 91.66 248.23 93.03 245.97 93.73 245.27 95.99 243.91 94.06 241.54 94.09 242.96 92.19 242.2 89.95" fill="#d4a964"/>
    </g>
    <g>
      <path d="M62.29,260.16l-2,4.14a16.67,16.67,0,0,0-8.16-2.59c-2.75,0-4.54,1-4.54,2.91,0,6.09,15.05,2.83,15,12.86,0,5-4.38,8-10.51,8a17.15,17.15,0,0,1-11.39-4.42l2-4.06a14.7,14.7,0,0,0,9.44,4.06c3.27,0,5.22-1.23,5.22-3.38,0-6.21-15.05-2.75-15.05-12.66,0-4.78,4.1-7.77,10.16-7.77A18.16,18.16,0,0,1,62.29,260.16Z" fill="#d4a964"/>
      <path d="M78.34,261.72v23.66h-4.7V261.72h-8.8v-4.22H87.18v4.22Z" fill="#d4a964"/>
      <path d="M92.4,279.08l-2.67,6.29h-4.9l12.31-27.88H102l12.19,27.88h-5l-2.67-6.29Zm7-16.57L94.15,274.9h10.51Z" fill="#d4a964"/>
      <path d="M130.43,276.93c-.4,0-.84,0-1.27,0h-6.61v8.4h-4.7V257.49h11.31c7.13,0,11.23,3.46,11.23,9.52,0,4.46-2.07,7.61-5.77,9l6.25,9.32h-5.34Zm-1.27-4.18c4.3,0,6.77-1.83,6.77-5.62s-2.47-5.42-6.77-5.42h-6.61v11Z" fill="#d4a964"/>
      <path d="M156.83,261.72v23.66h-4.7V261.72h-8.8v-4.22h22.34v4.22Z" fill="#d4a964"/>
      <path d="M174.4,261.72v7.53H188v4.22H174.4v7.69h15.69v4.22H169.7V257.49h19.91v4.22Z" fill="#d4a964"/>
      <path d="M208.41,276.93c-.4,0-.84,0-1.27,0h-6.61v8.4h-4.7V257.49h11.31c7.13,0,11.23,3.46,11.23,9.52,0,4.46-2.07,7.61-5.77,9l6.25,9.32h-5.34Zm-1.27-4.18c4.3,0,6.77-1.83,6.77-5.62s-2.47-5.42-6.77-5.42h-6.61v11Z" fill="#d4a964"/>
      <path d="M244.33,273.07l-4.74,5.22v7.09h-4.7V257.49h4.7v14.42l13.3-14.42h5.54L247.64,269.4l11.51,16h-5.66Z" fill="#d4a964"/>
      <path d="M263.49,285.37V257.49h4.7v27.88Z" fill="#d4a964"/>
      <path d="M285.71,261.72v23.66H281V261.72h-8.8v-4.22h22.34v4.22Z" fill="#d4a964"/>
    </g>
  </g>
</svg>
